<!DOCTYPE svg PUBLIC "-//W3C//DTD SVG 1.1//EN" "http://www.w3.org/Graphics/SVG/1.1/DTD/svg11.dtd">
<!-- Uploaded to: SVG Repo, www.svgrepo.com, Transformed by: SVG Repo Mixer Tools -->
<svg width="256px" height="256px" viewBox="-2.4 -2.4 28.80 28.80" fill="none" xmlns="http://www.w3.org/2000/svg" transform="rotate(270)" stroke="#000000" stroke-width="0.6">
<g id="SVGRepo_bgCarrier" stroke-width="0"/>
<g id="SVGRepo_tracerCarrier" stroke-linecap="round" stroke-linejoin="round" stroke="#0d0d0d" stroke-width="1.2"> <path fill-rule="evenodd" clip-rule="evenodd" d="M5.5 7H15.5C16.3284 7 17 7.67157 17 8.5V10.5L19.2764 9.3618C19.6088 9.19558 20 9.43733 20 9.80902V15.2785C20 15.6276 19.6513 15.8692 19.3244 15.7467L17 14.875V16.5C17 17.3284 16.3284 18 15.5 18H5.5C4.67157 18 4 17.3284 4 16.5V8.5C4 7.67157 4.67157 7 5.5 7Z" fill=" #67d69b"/> </g>
<g id="SVGRepo_iconCarrier"> <path fill-rule="evenodd" clip-rule="evenodd" d="M5.5 7H15.5C16.3284 7 17 7.67157 17 8.5V10.5L19.2764 9.3618C19.6088 9.19558 20 9.43733 20 9.80902V15.2785C20 15.6276 19.6513 15.8692 19.3244 15.7467L17 14.875V16.5C17 17.3284 16.3284 18 15.5 18H5.5C4.67157 18 4 17.3284 4 16.5V8.5C4 7.67157 4.67157 7 5.5 7Z" fill=" #67d69b"/> </g>
</svg>